<?xml version="1.0" encoding="utf-8"?>
<!-- Generator: Adobe Illustrator 23.0.3, SVG Export Plug-In . SVG Version: 6.00 Build 0)  -->
<svg version="1.1" id="logo_x5F_GwG_x5F_horz_x5F_FullColor_x5F_rgb_x5F_838x217px"
	 xmlns="http://www.w3.org/2000/svg" xmlns:xlink="http://www.w3.org/1999/xlink" x="0px" y="0px" viewBox="0 0 693.2 93"
	 style="enable-background:new 0 0 693.2 93;" xml:space="preserve">
<style type="text/css">
	.st0{fill:none;}
	.st1{fill:#5F6368;}
	.st2{fill:#4285F4;}
	.st3{fill:#E94235;}
	.st4{fill:#FABB05;}
	.st5{fill:#34A853;}
</style>
<rect id="bounding_box_x5F_clear_space" x="-72.2" y="-72.2" class="st0" width="837.5" height="216.5"/>
<g id="Grow_with_1_">
	<path class="st1" d="M64.6,41.4c0,8.9-2.6,16-7.9,21.3c-5.9,6.3-13.8,9.5-23.5,9.5c-9.3,0-17.1-3.2-23.6-9.6S0,48.2,0,38.8
		c0-9.4,3.2-17.3,9.6-23.7s14.3-9.6,23.6-9.6c4.7,0,9.1,0.8,13.3,2.5c4.2,1.7,7.6,4,10.3,7l-5.9,5.9c-2-2.4-4.5-4.2-7.6-5.6
		c-3.1-1.3-6.5-2-10-2c-7,0-12.8,2.4-17.7,7.2c-4.8,4.9-7.1,11-7.1,18.3s2.4,13.4,7.1,18.3c4.8,4.8,10.7,7.2,17.7,7.2
		c6.4,0,11.7-1.8,15.9-5.4c4.2-3.6,6.7-8.5,7.3-14.7H33.2v-7.7h31C64.5,38.2,64.6,39.8,64.6,41.4z"/>
	<path class="st1" d="M78.7,70.7h-8.2V27h7.9v7.1h0.4c0.8-2.3,2.5-4.3,5.1-5.9c2.6-1.6,5.1-2.5,7.6-2.5c2.4,0,4.4,0.4,6.1,1.1
		L95,34.8c-1-0.4-2.6-0.6-4.8-0.6c-3.1,0-5.8,1.2-8.1,3.7c-2.3,2.5-3.4,5.4-3.4,8.7V70.7z"/>
	<path class="st1" d="M96.8,48.9c0-6.7,2.1-12.3,6.3-16.7c4.3-4.4,9.7-6.6,16.1-6.6c6.5,0,11.8,2.2,16.1,6.6
		c4.3,4.4,6.4,10,6.4,16.7c0,6.8-2.1,12.3-6.4,16.7c-4.2,4.4-9.6,6.6-16.1,6.6c-6.5,0-11.9-2.2-16.1-6.6
		C98.9,61.2,96.8,55.6,96.8,48.9z M105,48.9c0,4.7,1.4,8.5,4.1,11.4c2.7,2.9,6.1,4.4,10.2,4.4c4,0,7.4-1.5,10.2-4.4
		c2.7-2.9,4.1-6.7,4.1-11.4c0-4.6-1.4-8.4-4.1-11.3c-2.8-3-6.2-4.5-10.2-4.5c-4,0-7.4,1.5-10.2,4.5C106.4,40.5,105,44.2,105,48.9z"
		/>
	<path class="st1" d="M209.4,27l-14.1,43.7h-8.4L176,37.2l-10.8,33.5h-8.3L142.9,27h8.6l9.7,33h0.1L172,27h8.5l10.8,33h0.1l9.6-33
		H209.4z"/>
	<path class="st1" d="M294.5,27l-14.1,43.7h-8.4l-10.9-33.5l-10.8,33.5h-8.3L228,27h8.6l9.7,33h0.1l10.8-33h8.5l10.8,33h0.1l9.6-33
		H294.5z"/>
	<path class="st1" d="M309.6,11.9c0,1.6-0.6,3-1.7,4.1c-1.1,1.1-2.5,1.7-4.1,1.7c-1.6,0-3-0.6-4.1-1.7c-1.1-1.1-1.7-2.5-1.7-4.1
		c0-1.6,0.6-3,1.7-4.1c1.1-1.1,2.5-1.7,4.1-1.7c1.6,0,3,0.6,4.1,1.7C309.1,9,309.6,10.3,309.6,11.9z M307.9,27v43.7h-8.2V27H307.9z"
		/>
	<path class="st1" d="M334.6,71.5c-3.6,0-6.5-1.1-8.9-3.3c-2.3-2.2-3.6-5.3-3.6-9.2V34.5h-7.7V27h7.7V13.6h8.2V27H341v7.5h-10.7
		v21.8c0,2.9,0.6,4.9,1.7,5.9c1.1,1,2.4,1.6,3.8,1.6c0.7,0,1.3-0.1,1.9-0.2c0.6-0.1,1.2-0.3,1.7-0.6l2.6,7.3
		C340,71.1,337.5,71.5,334.6,71.5z"/>
	<path class="st1" d="M348.4,6.9h8.2V27l-0.4,6.1h0.4c1.2-2.1,3.2-3.9,5.8-5.4c2.6-1.4,5.3-2.1,8.1-2.1c5.4,0,9.5,1.5,12.4,4.6
		c2.9,3.1,4.3,7.4,4.3,13.1v27.5h-8.2V44.9c0-7.9-3.5-11.8-10.4-11.8c-3.3,0-6.1,1.4-8.4,4.1c-2.3,2.8-3.4,6-3.4,9.7v23.8h-8.2V6.9z
		"/>
</g>
<g id="Google_logo">
	<path class="st2" d="M446.3,72.2c-19.9,0-36.6-16.2-36.6-36.1c0-19.9,16.7-36.1,36.6-36.1c11,0,18.8,4.3,24.7,9.9l-7,7
		c-4.2-4-9.9-7-17.8-7c-14.5,0-25.9,11.7-25.9,26.2s11.4,26.2,25.9,26.2c9.4,0,14.8-3.8,18.2-7.2c2.8-2.8,4.7-6.9,5.4-12.4h-23.5
		v-9.9h33.1c0.4,1.8,0.5,3.9,0.5,6.2c0,7.4-2,16.5-8.5,23.1C465.1,68.6,457,72.2,446.3,72.2z"/>
	<path class="st3" d="M529.6,48.9c0,13.4-10.4,23.2-23.2,23.2s-23.2-9.9-23.2-23.2c0-13.5,10.4-23.2,23.2-23.2
		S529.6,35.5,529.6,48.9z M519.4,48.9c0-8.4-6.1-14.1-13.1-14.1c-7,0-13.1,5.7-13.1,14.1c0,8.3,6.1,14.1,13.1,14.1
		C513.4,63,519.4,57.2,519.4,48.9z"/>
	<path class="st4" d="M580.7,48.9c0,13.4-10.5,23.2-23.3,23.2S534,62.3,534,48.9c0-13.5,10.5-23.2,23.3-23.2S580.7,35.5,580.7,48.9z
		 M570.5,48.9c0-8.4-6.1-14.1-13.1-14.1s-13.1,5.7-13.1,14.1c0,8.3,6.1,14.1,13.1,14.1S570.5,57.2,570.5,48.9z"/>
	<path class="st2" d="M629.4,27.1v41.7c0,17.2-10.1,24.2-22.1,24.2c-11.3,0-18-7.6-20.6-13.7l8.9-3.7c1.6,3.8,5.5,8.3,11.7,8.3
		c7.7,0,12.4-4.8,12.4-13.6v-3.3h-0.4c-2.3,2.8-6.7,5.3-12.2,5.3c-11.6,0-22.2-10.1-22.2-23.1c0-13.1,10.6-23.3,22.2-23.3
		c5.5,0,9.9,2.5,12.2,5.2h0.4v-3.8H629.4z M620.4,49c0-8.2-5.5-14.2-12.4-14.2c-7,0-12.9,6-12.9,14.2c0,8.1,5.9,14,12.9,14
		C614.9,63,620.4,57.1,620.4,49z"/>
	<path class="st5" d="M645.8,2.8v68h-10.2v-68H645.8z"/>
	<path class="st3" d="M684.9,56.6l7.9,5.3c-2.6,3.8-8.7,10.3-19.4,10.3c-13.2,0-23.1-10.2-23.1-23.2c0-13.8,9.9-23.2,21.9-23.2
		c12.1,0,18,9.6,19.9,14.8l1.1,2.6L662.2,56c2.4,4.7,6.1,7,11.3,7C678.6,63,682.2,60.5,684.9,56.6z M660.5,48.2l20.8-8.6
		c-1.1-2.9-4.6-4.9-8.6-4.9C667.4,34.7,660.2,39.2,660.5,48.2z"/>
</g>
</svg>
